<svg width="160" height="160" viewBox="0 0 160 160" fill="none" xmlns="http://www.w3.org/2000/svg">
<path d="M80 35C104.853 35 125 55.1472 125 80C125 104.853 104.853 125 80 125C55.1472 125 35 104.853 35 80C35 55.1472 55.1472 35 80 35Z" fill="url(#paint0_radial_1_349)"/>
<path d="M80 132.5C84.1423 132.5 87.5 135.858 87.5 140V147.5C87.5 151.642 84.1423 155 80 155C75.8578 155 72.5 151.642 72.5 147.5V140C72.5 135.858 75.8578 132.5 80 132.5ZM127.73 117.124L133.033 122.427C135.962 125.356 135.962 130.104 133.033 133.033C130.105 135.962 125.356 135.962 122.427 133.033L117.124 127.73C114.195 124.801 114.195 120.052 117.124 117.124C120.052 114.194 124.801 114.194 127.73 117.124ZM32.2699 117.124C35.1988 114.194 39.9476 114.194 42.8765 117.124C45.5801 119.827 45.7881 124.081 43.5004 127.023L42.8765 127.73L37.5732 133.033C34.6443 135.962 29.8955 135.962 26.9666 133.033C24.2629 130.33 24.055 126.075 26.3427 123.133L26.9666 122.427L32.2699 117.124ZM20 72.5C24.1421 72.5 27.5 75.8578 27.5 80C27.5 83.8464 24.6047 87.0163 20.8747 87.4496L20 87.5H12.5C8.3579 87.5 5 84.1423 5 80C5 76.1536 7.89533 72.9837 11.6253 72.5505L12.5 72.5H20ZM147.5 72.5C151.642 72.5 155 75.8578 155 80C155 84.1423 151.642 87.5 147.5 87.5H140C135.858 87.5 132.5 84.1423 132.5 80C132.5 75.8578 135.858 72.5 140 72.5H147.5ZM26.9668 26.9666C29.6704 24.263 33.9247 24.055 36.8669 26.3427L37.5734 26.9666L42.8767 32.2699C45.8056 35.1988 45.8056 39.9476 42.8767 42.8765C40.1731 45.5801 35.9189 45.7881 32.9767 43.5004L32.2701 42.8765L26.9668 37.5732C24.0379 34.6443 24.0379 29.8955 26.9668 26.9666ZM133.033 26.9668C135.962 29.8957 135.962 34.6444 133.033 37.5733L127.73 42.8767C124.801 45.8056 120.052 45.8056 117.124 42.8767C114.194 39.9477 114.194 35.199 117.124 32.27L122.427 26.9668C125.356 24.0378 130.104 24.0378 133.033 26.9668ZM80 5.00002C84.1423 5.00002 87.5 8.35792 87.5 12.5V20C87.5 24.1421 84.1423 27.5 80 27.5C75.8578 27.5 72.5 24.1421 72.5 20V12.5C72.5 8.35792 75.8578 5.00002 80 5.00002Z" fill="url(#paint1_linear_1_349)"/>
<defs>
<radialGradient id="paint0_radial_1_349" cx="0" cy="0" r="1" gradientUnits="userSpaceOnUse" gradientTransform="translate(48.75 46.25) rotate(43.0203) scale(104.286)">
<stop offset="0.193671" stop-color="#FFE475"/>
<stop offset="0.529275" stop-color="#FFB029"/>
<stop offset="0.780467" stop-color="#FF9100"/>
</radialGradient>
<linearGradient id="paint1_linear_1_349" x1="4.06249" y1="4.06252" x2="155.938" y2="155.938" gradientUnits="userSpaceOnUse">
<stop offset="0.166667" stop-color="#FFE475"/>
<stop offset="0.798611" stop-color="#FFBF29"/>
</linearGradient>
</defs>
</svg>
